<svg height="512" viewBox="0 0 512 512" width="512" xmlns="http://www.w3.org/2000/svg"><g id="Line_stroke_cut_Ex" data-name="Line stroke cut Ex"><g><path d="m496 168v-54a18.021 18.021 0 0 0 -18-18h-284a18.021 18.021 0 0 0 -18 18v14h-18.648a17.965 17.965 0 0 0 -14.977 8.016l-26.775 40.164a38.134 38.134 0 0 0 -27.054 15.469l-15.016 20.645 12.94 9.412 15.014-20.645a22.066 22.066 0 0 1 17.793-9.061h56.723v72h-120.29l22.76-31.294-12.94-9.412-30.73 42.26a28.049 28.049 0 0 0 -18.8 26.446v98a18.021 18.021 0 0 0 18 18h14a56 56 0 0 0 112 0h192a56 56 0 0 0 112 0h14a18.021 18.021 0 0 0 18-18v-206h-16v136h-288v-206a2 2 0 0 1 2-2h284a2 2 0 0 1 2 2v54zm-361.052 8 20.74-31.109a2 2 0 0 1 1.664-.891h18.648v32zm-102.948 116a12.013 12.013 0 0 1 12-12h12v36a12.013 12.013 0 0 1 -12 12h-12zm72 156a40 40 0 1 1 40-40 40.045 40.045 0 0 1 -40 40zm53.672-56a56.009 56.009 0 0 0 -107.344 0h-16.328a2 2 0 0 1 -2-2v-46h12a28.032 28.032 0 0 0 28-28v-36h104v112zm250.328 56a40 40 0 1 1 40-40 40.045 40.045 0 0 1 -40 40zm72-112v54a2 2 0 0 1 -2 2h-16.328a56.009 56.009 0 0 0 -107.344 0h-162.328v-56z"/><path d="m128 296h32v16h-32z"/><path d="m339.358 128.63a8 8 0 0 0 -6.516 0l-71.9 32.061a8 8 0 0 0 -4.645 8.551l5.994 38.05c.009.063.02.125.031.188a130.945 130.945 0 0 0 51.658 82.12l17.44 12.845a8 8 0 0 0 9.448.03l16.617-12.08a130.9 130.9 0 0 0 52.33-82.6c.012-.062.022-.124.032-.186l6.055-38.364a8 8 0 0 0 -4.644-8.554zm54.7 76.391a114.979 114.979 0 0 1 -45.981 72.429l-11.877 8.637-12.727-9.374a115 115 0 0 1 -45.387-72.005l-5.025-31.9 63.039-28.108 63.042 28.111z"/><path d="m309.666 202.341-11.313 11.313 24 24a8 8 0 0 0 11.313 0l48-48-11.313-11.313-42.344 42.343z"/><path d="m208 128h16v16h-16z"/><path d="m208 288h16v16h-16z"/><path d="m448 128h16v16h-16z"/><path d="m448 288h16v16h-16z"/><path d="m104 384a24 24 0 1 0 24 24 24.027 24.027 0 0 0 -24-24zm0 32a8 8 0 1 1 8-8 8.009 8.009 0 0 1 -8 8z"/><path d="m408 384a24 24 0 1 0 24 24 24.027 24.027 0 0 0 -24-24zm0 32a8 8 0 1 1 8-8 8.009 8.009 0 0 1 -8 8z"/><path d="m16 128h64v16h-64z"/><path d="m96 128h16v16h-16z"/><path d="m88 48h128v16h-128z"/><path d="m232 48h16v16h-16z"/><path d="m304 64h128v16h-128z"/><path d="m448 64h16v16h-16z"/></g><g><path d="m168 432h144v16h-144z"/><path d="m328 432h16v16h-16z"/></g></g></svg>