<?xml version="1.0"?>
<svg xmlns="http://www.w3.org/2000/svg" xmlns:xlink="http://www.w3.org/1999/xlink" xmlns:svgjs="http://svgjs.com/svgjs" version="1.1" width="512" height="512" x="0" y="0" viewBox="0 0 512.005 512.005" style="enable-background:new 0 0 512 512" xml:space="preserve" class=""><g>
<g xmlns="http://www.w3.org/2000/svg" id="XMLID_1713_">
	<g id="XMLID_995_">
		<path id="XMLID_996_" d="M226.985,338.695c-2.64,0-5.21,1.07-7.08,2.931c-1.86,1.859-2.92,4.439-2.92,7.069s1.06,5.21,2.92,7.07    c1.87,1.86,4.44,2.93,7.08,2.93c2.63,0,5.2-1.069,7.07-2.93c1.86-1.86,2.92-4.44,2.92-7.07s-1.06-5.21-2.92-7.069    C232.184,339.766,229.615,338.695,226.985,338.695z" fill="#f2ac2a" data-original="#000000" style=""/>
		<path id="XMLID_1580_" d="M96.399,287.431c-6.969-4.88-15.423-6.756-23.801-5.276c-8.379,1.477-15.682,6.129-20.562,13.099    s-6.754,15.423-5.277,23.802s6.129,15.682,13.1,20.562c5.416,3.792,11.727,5.769,18.203,5.769c1.858,0,3.73-0.162,5.599-0.492    c17.297-3.049,28.889-19.603,25.839-36.9C108.021,299.613,103.369,292.311,96.399,287.431z M80.187,325.197    c-3.117,0.548-6.263-0.147-8.857-1.964c-2.594-1.816-4.325-4.533-4.875-7.651s0.147-6.264,1.964-8.857    c1.816-2.594,4.533-4.325,7.651-4.875c0.695-0.122,1.392-0.183,2.083-0.183c2.41,0,4.759,0.735,6.774,2.146    c2.594,1.816,4.325,4.533,4.875,7.651C90.937,317.901,86.623,324.062,80.187,325.197z" fill="#f2ac2a" data-original="#000000" style=""/>
		<path id="XMLID_1583_" d="M349.309,233.362c-8.379,1.477-15.681,6.129-20.562,13.099s-6.754,15.423-5.277,23.802    c1.478,8.38,6.129,15.682,13.099,20.563c5.416,3.792,11.727,5.769,18.203,5.769c1.858,0,3.731-0.162,5.6-0.492    c17.296-3.051,28.887-19.604,25.838-36.901c0,0,0,0,0-0.001C383.16,241.904,366.609,230.307,349.309,233.362z M356.899,276.406    c-3.118,0.547-6.264-0.148-8.857-1.964c-2.594-1.816-4.325-4.534-4.875-7.652s0.147-6.264,1.964-8.857    c1.816-2.594,4.533-4.325,7.651-4.875c0.693-0.122,1.383-0.181,2.064-0.181c5.641,0,10.656,4.053,11.668,9.796    C367.649,269.109,363.335,275.271,356.899,276.406z" fill="#f2ac2a" data-original="#000000" style=""/>
		<path id="XMLID_1584_" d="M255.425,148.945c2.63,0,5.21-1.069,7.07-2.939c1.86-1.86,2.93-4.431,2.93-7.07    c0-2.63-1.07-5.2-2.93-7.07c-1.86-1.859-4.44-2.93-7.07-2.93s-5.21,1.07-7.07,2.93c-1.86,1.86-2.93,4.44-2.93,7.07    c0,2.64,1.07,5.21,2.93,7.07C250.215,147.876,252.795,148.945,255.425,148.945z" fill="#f2ac2a" data-original="#000000" style=""/>
		<path id="XMLID_1587_" d="M270.616,304.943c5.398-0.952,9.996-4.26,12.615-9.074c2.62-4.815,2.898-10.473,0.765-15.523    l-8.65-20.469c-3.269-7.735-11.329-12.123-19.598-10.661l-89.828,15.839c-8.271,1.458-14.345,8.334-14.77,16.721l-1.127,22.194    c-0.278,5.475,1.919,10.695,6.028,14.324c3.31,2.924,7.492,4.488,11.815,4.488c1.043,0,2.095-0.091,3.144-0.276L270.616,304.943    C270.616,304.943,270.616,304.943,270.616,304.943z M170.131,302.353l0.909-17.893l86.535-15.258l6.974,16.503L170.131,302.353z" fill="#f2ac2a" data-original="#000000" style=""/>
		<path id="XMLID_1590_" d="M502.005,325.381h-27c-1.938,0-3.833,0.563-5.457,1.62l-38.476,25.056    c-4.31,0.951-15.813,3.493-27.329,6.048c-4.255,0.943-8.5,1.886-12.397,2.754c-0.065-0.701-0.151-1.405-0.276-2.111l-4.93-27.959    l12.57-2.217c15.955-2.813,26.647-18.083,23.833-34.038l-10.323-58.544c-3.997-22.668-22.163-39.336-43.776-42.528l-5.671-12.898    l6.765-1.193c16.291-2.872,27.208-18.463,24.335-34.754c-2.873-16.29-18.458-27.21-34.754-24.334l-21.204,3.739l-7.283-16.565    c-9.611-21.86-32.748-34.231-56.264-30.085L89.648,109.943c-23.488,4.141-40.997,23.653-42.577,47.453l-1.203,18.121    l-21.069,3.715c-7.892,1.391-14.769,5.772-19.365,12.336c-4.596,6.564-6.361,14.525-4.97,22.417s5.773,14.769,12.337,19.365    c5.101,3.571,11.044,5.434,17.144,5.434c1.75,0,3.513-0.153,5.273-0.464l6.557-1.156l-0.937,14.106    c-19.149,10.417-30.468,32.25-26.479,54.873l10.323,58.544c2.51,14.236,14.938,24.283,28.922,24.282    c1.687,0,3.397-0.146,5.115-0.449l12.57-2.216l4.93,27.959c2.188,12.409,13.02,21.165,25.208,21.165    c1.471,0,2.962-0.128,4.459-0.392l18.447-3.253c0,0,0,0,0,0c6.737-1.188,12.608-4.928,16.532-10.531    c3.923-5.604,5.43-12.4,4.242-19.137l-4.93-27.959l48.983-8.637c5.439-0.959,9.071-6.146,8.112-11.584    c-0.958-5.438-6.145-9.071-11.584-8.111L55.248,368.824c-5.098,0.908-9.971-2.515-10.869-7.609l-10.323-58.544    c-3.078-17.457,8.62-34.163,26.076-37.241l295.154-52.044c17.458-3.078,34.162,8.62,37.24,26.076l10.323,58.544    c0.898,5.095-2.516,9.971-7.61,10.87l-130.761,23.057c-5.439,0.959-9.071,6.146-8.112,11.584    c0.959,5.439,6.154,9.072,11.584,8.111l49.302-8.693l4.93,27.959c1.188,6.737,4.928,12.607,10.532,16.531    c4.354,3.049,9.428,4.639,14.635,4.639c0.363,0,0.728-0.032,1.092-0.048c-2.671,3.117-5.666,6.614-9.067,10.584    c-5.114,5.968-6.25,14.111-2.965,21.251c3.285,7.142,10.21,11.578,18.072,11.578h147.525c5.523,0,10-4.478,10-10v-90.048    C512.005,329.858,507.528,325.381,502.005,325.381z M120.483,377.631l4.93,27.958c0.26,1.476-0.07,2.965-0.929,4.192    s-2.146,2.047-3.621,2.308l0-0.001l-18.448,3.253c-3.048,0.534-5.961-1.504-6.498-4.55l-4.93-27.96l4.319-0.761L120.483,377.631z     M362.594,139.978c5.434-0.952,10.627,2.683,11.584,8.111c0.958,5.431-2.681,10.628-8.111,11.585l-11.578,2.042l-8.286-18.848    L362.594,139.978z M277.843,97.066c14.414-2.543,28.592,5.041,34.482,18.438l34.742,79.022l-135.031,23.81l28.828-41.171    c3.168-4.523,2.068-10.759-2.456-13.927c-4.525-3.169-10.759-2.068-13.927,2.456l-40.299,57.553l-64.009,11.287l87.606-125.114    L277.843,97.066z M93.121,129.639l86.805-15.306L92.32,239.446l-31.015,5.469l5.723-86.194    C67.996,144.136,78.726,132.177,93.121,129.639z M31.744,218.625c-2.632,0.459-5.285-0.125-7.472-1.657    c-2.188-1.532-3.648-3.824-4.112-6.455c-0.958-5.431,2.681-10.627,8.112-11.585l16.232-2.862l-1.364,20.55L31.744,218.625z     M344.185,371.042c-1.228-0.859-2.047-2.146-2.307-3.621l-4.93-27.959l29.496-5.2l4.93,27.958c0.537,3.046-1.504,5.962-4.55,6.499    l-18.447,3.253C346.899,372.229,345.412,371.901,344.185,371.042z M492.005,415.429H354.718    c13.731-16.027,23.415-27.327,27.439-32.018c8.949-2.03,36.206-8.068,55.003-12.218c1.175-0.259,2.293-0.729,3.301-1.385    l37.512-24.428h14.031V415.429z" fill="#f2ac2a" data-original="#000000" style=""/>
	</g>
</g>















</g></svg>
