<?xml version="1.0"?>
<svg xmlns="http://www.w3.org/2000/svg" xmlns:xlink="http://www.w3.org/1999/xlink" xmlns:svgjs="http://svgjs.com/svgjs" version="1.1" width="512" height="512" x="0" y="0" viewBox="0 0 64 64" style="enable-background:new 0 0 512 512" xml:space="preserve" class=""><g><path xmlns="http://www.w3.org/2000/svg" d="m14 36-2.02 23.33c-.17 1.52-1.45 2.67-2.98 2.67-.1 0-.21-.01-.33-.02-1.65-.18-2.83-1.67-2.65-3.31l1.09-20.67.1-2z" fill="#26708b" data-original="#838f9b" style="" class=""/><path xmlns="http://www.w3.org/2000/svg" d="m21.98 58.67c.18 1.64-1 3.13-2.65 3.31-.12.01-.23.02-.33.02-1.53 0-2.81-1.15-2.98-2.67l-2.02-23.33h6.75z" fill="#26708b" data-original="#838f9b" style="" class=""/><path xmlns="http://www.w3.org/2000/svg" d="m7.21 36-.1 2h-2.11c-1.66 0-3-1.34-3-3v-9c0-4.58 3.09-8.45 7.3-9.62l1.7 7.62 3-3 3 3 1.78-8h17.22v6h-13.89c-1.15 0-2.06.96-2 2.11l.64 11.89h-6.75z" fill="#f2ac2a" data-original="#fcd770" style="" class=""/><path xmlns="http://www.w3.org/2000/svg" d="m18.78 16-1.78 8-3-3 3.33-5z" fill="#26708b" data-original="#e6e9ed" style="" class=""/><path xmlns="http://www.w3.org/2000/svg" d="m49 14c2.21 0 4-1.79 4-4h4l5-8v34l-5-6h-16l-3.76 4.51v.01c-.43.11-.84.25-1.24.4v-12.92-6-14l5 8h4c0 2.21 1.79 4 4 4z" fill="#f2ac2a" data-original="#cf9e76" style="" class=""/><path xmlns="http://www.w3.org/2000/svg" d="m62 2-5 8h-4c0-2.21-1.79-4-4-4s-4 1.79-4 4h-4l-5-8z" fill="#26708b" data-original="#d3a06c" style="" class=""/><path xmlns="http://www.w3.org/2000/svg" d="m57 30 5 6h-13.79c-2.11-1.27-4.58-2-7.21-2-1.3 0-2.57.18-3.76.52v-.01l3.76-4.51z" fill="#26708b" data-original="#d3a06c" style="" class=""/><path xmlns="http://www.w3.org/2000/svg" d="m49 6c2.21 0 4 1.79 4 4s-1.79 4-4 4-4-1.79-4-4 1.79-4 4-4z" fill="#f2ac2a" data-original="#fcd770" style="" class=""/><path xmlns="http://www.w3.org/2000/svg" d="m48.21 36c4.07 2.45 6.79 6.91 6.79 12 0 7.73-6.27 14-14 14s-14-6.27-14-14c0-5.97 3.74-11.06 9-13.08.4-.15.81-.29 1.24-.4 1.19-.34 2.46-.52 3.76-.52 2.63 0 5.1.73 7.21 2z" fill="#26708b" data-original="#e6e9ed" style="" class=""/><path xmlns="http://www.w3.org/2000/svg" d="m47 48v8c0 1.1-.9 2-2 2h-8c-1.1 0-2-.9-2-2v-8c0-1.1.9-2 2-2h8c1.1 0 2 .9 2 2z" fill="#f2ac2a" data-original="#fcd770" style="" class=""/><circle xmlns="http://www.w3.org/2000/svg" cx="41" cy="51" fill="#5cd6b3" r="2" data-original="#5cd6b3" style=""/><circle xmlns="http://www.w3.org/2000/svg" cx="14" cy="9" fill="#f2ac2a" r="7" data-original="#f0d0b4" style="" class=""/><path xmlns="http://www.w3.org/2000/svg" d="m17.33 16-3.33 5-3.28-4.91c.42-.06.85-.09 1.28-.09h2 1z" fill="#f2ac2a" data-original="#f0d0b4" style="" class=""/><path xmlns="http://www.w3.org/2000/svg" d="m10.72 16.09 3.28 4.91-3 3-1.7-7.62v-.01c.46-.13.93-.23 1.42-.28z" fill="#26708b" data-original="#e6e9ed" style="" class=""/><path xmlns="http://www.w3.org/2000/svg" d="m63 1h-28v14h-15.726c1.667-1.467 2.726-3.61 2.726-6 0-4.411-3.589-8-8-8s-8 3.589-8 8c0 2.605 1.257 4.916 3.19 6.377-4.706 1.247-8.19 5.53-8.19 10.623v9c0 2.206 1.794 4 4 4h1.053l-1.028 19.559c-.244 2.19 1.34 4.172 3.54 4.418.16.016.298.023.436.023 2.041 0 3.75-1.53 3.976-3.584l1.023-11.817 1.024 11.841c.225 2.03 1.934 3.56 3.975 3.56.139 0 .276-.007.445-.024 2.191-.245 3.775-2.227 3.536-4.36l-1.868-34.561c-.015-.277.082-.541.273-.742.191-.202.448-.313.726-.313h12.889v11.261c-5.291 2.32-9 7.601-9 13.739 0 8.271 6.729 15 15 15s15-6.729 15-15c0-4.348-1.871-8.258-4.836-11h11.836zm-5.532 28h-16.936l-3.532 4.238v-27.751l3.446 5.513h3.655c.395 1.937 1.915 3.467 3.845 3.883-.219 1.769-1.096 2.624-2.021 3.519-.902.874-1.925 1.865-1.925 3.598v2h2v-2c0-.846.452-1.323 1.316-2.161.538-.521 1.168-1.141 1.684-1.989.516.847 1.145 1.468 1.684 1.989.864.838 1.316 1.315 1.316 2.161h2c0-1.733-1.023-2.724-1.925-3.598-.924-.895-1.802-1.75-2.021-3.519 1.93-.417 3.45-1.946 3.845-3.883h3.655l3.446-5.513v27.751zm-3.569-20c-.465-2.279-2.485-4-4.899-4s-4.434 1.721-4.899 4h-2.547l-3.75-6h22.391l-3.75 6zm-4.899 4c-1.654 0-3-1.346-3-3s1.346-3 3-3 3 1.346 3 3-1.346 3-3 3zm-35 6.197-1.465-2.197h2.93zm3.362-1.438-.943 4.246-1.132-1.132zm-4.649 3.114-1.132 1.132-.944-4.246zm-4.713-11.873c0-3.309 2.691-6 6-6s6 2.691 6 6-2.691 6-6 6-6-2.691-6-6zm2.987 50.22c-.121 1.087-1.057 1.885-2.209 1.768-1.095-.122-1.887-1.112-1.761-2.266l1.143-21.722h4.75zm8.243 1.766c-.085.009-.158.014-.231.014-1.02 0-1.874-.766-1.984-1.756l-1.925-22.244h4.72l1.178 21.779c.121 1.096-.671 2.086-1.758 2.207zm2.881-39.986c-.82 0-1.613.341-2.177.936s-.862 1.406-.818 2.226l.585 10.838h-11.436l.734-13.947-1.997-.105-.844 16.052h-1.158c-1.103 0-2-.897-2-2v-9c0-3.749 2.305-6.966 5.572-8.318l1.847 8.313 3.581-3.581 3.581 3.581 1.999-8.995h15.42v4zm31.889 27c0 7.168-5.832 13-13 13s-13-5.832-13-13 5.832-13 13-13 13 5.832 13 13zm-13-15c-.422 0-.838.029-1.251.063l1.719-2.063h15.063l3.333 4h-11.413c-2.198-1.265-4.738-2-7.451-2z" fill="#000000" data-original="#000000" style="" class=""/><circle xmlns="http://www.w3.org/2000/svg" cx="49" cy="10" r="1" fill="#000000" data-original="#000000" style="" class=""/><path xmlns="http://www.w3.org/2000/svg" d="m49.862 46.428 1.97-.348c-.127-.722-.328-1.434-.596-2.114l-1.861.732c.219.557.383 1.139.487 1.73z" fill="#000000" data-original="#000000" style="" class=""/><path xmlns="http://www.w3.org/2000/svg" d="m47.427 41.7c.42.429.799.9 1.126 1.402l1.676-1.092c-.399-.612-.861-1.188-1.374-1.711z" fill="#000000" data-original="#000000" style="" class=""/><path xmlns="http://www.w3.org/2000/svg" d="m49.819 49.801 1.96.398c.129-.634.202-1.283.217-1.931l-1.999-.049c-.013.532-.073 1.063-.178 1.582z" fill="#000000" data-original="#000000" style="" class=""/><path xmlns="http://www.w3.org/2000/svg" d="m34.573 41.7-1.428-1.4c-2.29 2.333-3.416 5.541-3.09 8.8l1.99-.199c-.267-2.668.655-5.292 2.528-7.201z" fill="#000000" data-original="#000000" style="" class=""/><path xmlns="http://www.w3.org/2000/svg" d="m30.504 51.299c.24.766.565 1.507.967 2.201l1.731-1c-.328-.568-.594-1.173-.79-1.799z" fill="#000000" data-original="#000000" style="" class=""/><path xmlns="http://www.w3.org/2000/svg" d="m46 45.184v-3.184c0-2.757-2.243-5-5-5s-5 2.243-5 5v3.184c-1.161.414-2 1.514-2 2.816v8c0 1.654 1.346 3 3 3h8c1.654 0 3-1.346 3-3v-8c0-1.302-.839-2.402-2-2.816zm-5-6.184c1.654 0 3 1.346 3 3v3h-6v-3c0-1.654 1.346-3 3-3zm5 17c0 .552-.449 1-1 1h-8c-.551 0-1-.448-1-1v-8c0-.552.449-1 1-1h8c.551 0 1 .448 1 1z" fill="#000000" data-original="#000000" style="" class=""/><path xmlns="http://www.w3.org/2000/svg" d="m41 48c-1.654 0-3 1.346-3 3 0 1.302.839 2.402 2 2.816v2.184h2v-2.184c1.161-.414 2-1.514 2-2.816 0-1.654-1.346-3-3-3zm0 4c-.551 0-1-.448-1-1s.449-1 1-1 1 .448 1 1-.449 1-1 1z" fill="#000000" data-original="#000000" style="" class=""/><path xmlns="http://www.w3.org/2000/svg" d="m13 25h2v2h-2z" fill="#000000" data-original="#000000" style="" class=""/><path xmlns="http://www.w3.org/2000/svg" d="m13 29h2v2h-2z" fill="#000000" data-original="#000000" style="" class=""/></g></svg>
