<?xml version="1.0"?>
<svg xmlns="http://www.w3.org/2000/svg" xmlns:xlink="http://www.w3.org/1999/xlink" xmlns:svgjs="http://svgjs.com/svgjs" version="1.1" width="512" height="512" x="0" y="0" viewBox="0 0 512 512" style="enable-background:new 0 0 512 512" xml:space="preserve" class=""><g><g xmlns="http://www.w3.org/2000/svg"><path d="m471 255c0-52.383-42.617-95-95-95s-95 42.617-95 95c0 40.029 24.887 74.353 60 88.318v153.682c0 8.284 6.716 15 15 15h40c8.284 0 15-6.716 15-15v-35h15c8.284 0 15-6.716 15-15s-6.716-15-15-15h-15v-88.682c35.113-13.965 60-48.289 60-88.318zm-85-5h-20c-8.284 0-15-6.716-15-15s6.716-15 15-15h20c8.284 0 15 6.716 15 15s-6.716 15-15 15z" fill="#f2ac2a" data-original="#ffeb99" style="" class=""/><path d="m386 220c8.284 0 15 6.716 15 15s-6.716 15-15 15h-10v262h20c8.284 0 15-6.716 15-15v-35h15c8.284 0 15-6.716 15-15s-6.716-15-15-15h-15v-88.682c35.113-13.964 60-48.289 60-88.318 0-52.383-42.617-95-95-95v60z" fill="#26708b" data-original="#ffcd00" style="" class=""/><g><path d="m231 265h-55-55c-8.284 0-15 6.716-15 15v197c0 19.33 15.67 35 35 35 19.33 0 35-15.67 35-35 0 19.33 15.67 35 35 35 19.33 0 35-15.67 35-35v-197c0-8.284-6.716-15-15-15z" fill="#26708b" data-original="#5f55af" style="" class=""/><path d="m211 512c19.33 0 35-15.67 35-35v-197c0-8.284-6.716-15-15-15h-55v212c0 19.33 15.67 35 35 35z" fill="#26708b" data-original="#453d83" style="" class=""/><path d="m388.5 100h-252.5c-52.467 0-95 42.533-95 95v92.5c0 17.949 14.551 32.5 32.5 32.5 17.949 0 32.5-14.551 32.5-32.5v-7.5h140v-115h142.5c17.949 0 32.5-14.551 32.5-32.5 0-17.949-14.551-32.5-32.5-32.5z" fill="#f2ac2a" data-original="#bee75e" style="" class=""/><path d="m388.5 100h-212.5v180h70v-115h142.5c17.949 0 32.5-14.551 32.5-32.5s-14.551-32.5-32.5-32.5z" fill="#f2ac2a" data-original="#00da80" style="" class=""/><circle cx="176" cy="60" fill="#f2ac2a" r="60" data-original="#ffeee5" style="" class=""/><path d="m236 60c0-33.084-26.916-60-60-60v120c33.084 0 60-26.916 60-60z" fill="#26708b" data-original="#ffdecf" style="" class=""/><path d="m91 190c-8.284 0-15 6.716-15 15v114.895c16.78-1.278 30-15.288 30-32.395v-67.5-15c0-8.284-6.716-15-15-15z" fill="#f2ac2a" data-original="#00da80" style="" class=""/></g></g></g></svg>
