<?xml version="1.0"?>
<svg xmlns="http://www.w3.org/2000/svg" xmlns:xlink="http://www.w3.org/1999/xlink" xmlns:svgjs="http://svgjs.com/svgjs" version="1.1" width="512" height="512" x="0" y="0" viewBox="0 0 512 512" style="enable-background:new 0 0 512 512" xml:space="preserve" class=""><g><g xmlns="http://www.w3.org/2000/svg"><path d="m257.205 136c-87.122 0-158 70.878-158 158h30c0-70.58 57.42-128 128-128 70.579 0 128 57.42 128 128h30c0-87.122-70.879-158-158-158z" fill="#f2ac2a" data-original="#000000" style="" class=""/><path d="m297.122 211.254-34.454 77.037c-7.714-.87-15.576.101-23.036 2.95-12.289 4.694-22.015 13.893-27.386 25.901-5.371 12.009-5.744 25.391-1.05 37.68s13.893 22.015 25.901 27.386c6.513 2.913 13.324 4.29 20.035 4.29 18.836 0 36.856-10.864 45.031-29.142 5.37-12.009 5.743-25.391 1.049-37.68-2.85-7.46-7.368-13.967-13.158-19.137l34.454-77.037zm-22.345 133.855c-4.333 9.69-15.742 14.048-25.431 9.714-4.694-2.099-8.29-5.901-10.124-10.704s-1.689-10.034.41-14.728 5.901-8.29 10.704-10.124c2.232-.853 4.556-1.277 6.876-1.277 2.672 0 5.338.564 7.851 1.688 4.694 2.1 8.29 5.901 10.124 10.705 1.835 4.802 1.69 10.032-.41 14.726z" fill="#f2ac2a" data-original="#000000" style="" class=""/><path d="m437.02 112.98c-48.353-48.351-112.64-74.98-181.02-74.98s-132.667 26.629-181.02 74.98c-48.352 48.353-74.98 112.64-74.98 181.02 0 34.406 6.733 67.824 20.011 99.326l3.867 9.174h81.615l51.387 71.5h200.649l51.388-71.5h79.204l3.867-9.174c13.28-31.502 20.012-64.921 20.012-99.326 0-68.38-26.629-132.667-74.98-181.02zm-43.486 259.52-51.388 71.5h-169.882l-51.388-71.5h-76.855c-7.58-20.421-12.111-41.693-13.533-63.5h38.512v-30h-38.49c1.992-30.246 9.957-58.882 22.73-84.743l33.313 19.233 15-25.98-33.278-19.213c16.444-24.478 37.543-45.577 62.021-62.021l19.213 33.277 25.98-15-19.233-33.312c25.861-12.773 54.498-20.739 84.744-22.731v38.49h30v-38.49c30.246 1.992 58.883 9.957 84.743 22.73l-19.233 33.313 25.98 15 19.213-33.278c24.478 16.444 45.577 37.543 62.021 62.021l-33.278 19.213 15 25.98 33.313-19.233c12.773 25.86 20.739 54.497 22.73 84.743h-38.489v30h38.512c-1.422 21.807-5.953 43.078-13.533 63.5h-74.445z" fill="#f2ac2a" data-original="#000000" style="" class=""/></g></g></svg>
