<?xml version="1.0" encoding="iso-8859-1"?>
<!-- Generator: Adobe Illustrator 18.0.0, SVG Export Plug-In . SVG Version: 6.00 Build 0)  -->
<!DOCTYPE svg PUBLIC "-//W3C//DTD SVG 1.1//EN" "http://www.w3.org/Graphics/SVG/1.1/DTD/svg11.dtd">
<svg version="1.1" id="Capa_1" xmlns="http://www.w3.org/2000/svg" xmlns:xlink="http://www.w3.org/1999/xlink" x="0px" y="0px"
	 viewBox="0 0 473.736 473.736" style="enable-background:new 0 0 473.736 473.736;" xml:space="preserve">
<path d="M406.95,392.563l-28.525-93.009c-8.141-26.533-32.257-44.367-60.011-44.367h-1.835l0.236-1.961l-27.832-18.259
	c-2.079-1.362-4.805-1.196-6.7,0.41l-0.74-3.583c17.903-13.708,34.091-33.919,43.775-57.018
	c13.448-5.228,24.321-18.652,28.006-35.304c4.803-21.693-3.764-42.667-19.534-50.785C329.223,48.619,312.531,0,236.875,0
	c-75.183,0-92.04,48.587-96.803,88.623c-15.85,8.087-24.472,29.101-19.651,50.849c3.7,16.66,14.565,30.076,28.014,35.304
	c9.685,23.092,25.864,43.296,43.768,57.004l-0.747,3.598c-1.898-1.606-4.623-1.772-6.701-0.41l-27.833,18.259l0.237,1.961h-1.835
	c-27.754,0-51.871,17.834-60.013,44.367l-28.524,93.009c-5.81,18.952-2.244,39.783,9.543,55.72
	c11.779,15.936,30.644,25.454,50.469,25.454h220.141c19.825,0,38.69-9.518,50.469-25.454
	C409.194,432.346,412.761,411.515,406.95,392.563z M236.875,22.551c48.194,0,69.312,20.227,74.618,71.168l-5.086,4.133
	c-3.063-2.835-7.087-4.661-11.574-4.661h-35.289c-9.479,0-17.187,7.709-17.187,17.181v6.503h-10.969v-6.503
	c0-9.472-7.707-17.181-17.179-17.181h-35.289c-4.496,0-8.519,1.826-11.583,4.661l-4.982-4.056
	C167.897,43.438,189.628,22.551,236.875,22.551z M298.053,107.23v35.999h-39.707V107.23H298.053z M216.88,107.23v35.999h-39.708
	V107.23H216.88z M167.471,161.602c-1.386-3.739-4.645-6.479-8.574-7.188c-6.055-1.095-13.795-7.763-16.463-19.825
	c-2.686-12.094,2.933-24.166,11.425-26.906l7.873,6.397v25.422c0,9.472,7.708,17.18,17.188,17.18h35.289
	c9.472,0,17.179-7.708,17.179-17.18v-6.503h10.969v6.503c0,9.472,7.708,17.18,17.187,17.18h35.289c9.472,0,17.18-7.708,17.18-17.18
	V114.08l7.973-6.479c7.775,2.238,14.016,14.871,11.325,26.996c-2.669,12.055-10.401,18.723-16.464,19.817
	c-3.922,0.71-7.18,3.449-8.566,7.188c-14.298,38.73-48.051,65.712-69.405,65.712C215.522,227.314,181.77,200.333,167.471,161.602z
	 M262.692,251.966l-17.107,14.495l-8.716,7.387l-8.717-7.387l-17.108-14.495l1.598-7.707c8.196,3.574,16.408,5.604,24.233,5.604
	c7.819,0,16.032-2.03,24.22-5.597L262.692,251.966z M379.283,434.882c-7.551,10.213-19.645,16.306-32.345,16.306h-92.401
	l12.077-75.199l-14.251-35.997l12.399-11.842l-27.894-26.644l-27.895,26.644l12.399,11.842l-14.251,35.997l12.079,75.199h-92.403
	c-12.699,0-24.793-6.093-32.345-16.306c-7.55-10.22-9.833-23.566-6.109-35.706l28.526-93.01c5.211-17.005,20.667-28.43,38.453-28.43
	h4.59l6.818,55.854c0.261,2.11,1.678,3.905,3.678,4.645c1.999,0.74,4.244,0.3,5.817-1.134l60.643-55.46l60.641,55.46
	c1.575,1.434,3.818,1.874,5.817,1.134c2.002-0.74,3.418-2.535,3.678-4.645l6.818-55.854h4.591c17.785,0,33.241,11.425,38.454,28.43
	l28.524,93.01C389.118,411.315,386.833,424.662,379.283,434.882z"/>
<g>
</g>
<g>
</g>
<g>
</g>
<g>
</g>
<g>
</g>
<g>
</g>
<g>
</g>
<g>
</g>
<g>
</g>
<g>
</g>
<g>
</g>
<g>
</g>
<g>
</g>
<g>
</g>
<g>
</g>
</svg>
